<?xml version="1.0" encoding="utf-8"?>
<!-- Generator: Adobe Illustrator 27.5.0, SVG Export Plug-In . SVG Version: 6.00 Build 0)  -->
<svg version="1.1" xmlns="http://www.w3.org/2000/svg" xmlns:xlink="http://www.w3.org/1999/xlink" x="0px" y="0px"
	 viewBox="0 0 500 500" style="enable-background:new 0 0 500 500;" xml:space="preserve">
<g id="BACKGROUND">
	<rect style="fill:#C4C8FF;" width="500" height="500"/>
</g>
<g id="OBJECTS">
	<path style="fill:#D8DBFF;" d="M415.069,186.485c-17.431-21.208-48.2-26.019-75.189-20.999
		c-21.277,3.958-44.526-2.479-61.794-15.524c-31.53-23.819-72.247-35.142-111.743-36.394c-33.729-1.069-67.646,13.272-90.376,38.214
		s-33.869,60.042-29.68,93.527l63.567,93.012c1.389,31.012,20.618,59.646,46.625,76.596c26.007,16.95,57.993,23.105,89.008,21.799
		c16.71-0.703,33.492-3.513,48.865-10.098c36.043-15.439,54.544-52.442,72.396-87.352c14.198-27.763,40.093-48.322,55.272-75.56
		C435.383,239.725,432.5,207.694,415.069,186.485z"/>
	<g>
		<g>
			<rect x="145.953" y="55.42" style="fill:#FFFFFF;" width="230.676" height="148.374"/>
			<g>
				<rect x="145.953" y="55.42" style="fill:#9E97FF;" width="230.676" height="15.609"/>
				<path style="fill:#814EFF;" d="M156.888,63.225c0-1.286-1.042-2.328-2.328-2.328s-2.328,1.042-2.328,2.328
					c0,1.286,1.042,2.328,2.328,2.328S156.888,64.51,156.888,63.225z"/>
				<path style="fill:#814EFF;" d="M166.72,63.225c0-1.286-1.042-2.328-2.328-2.328c-1.286,0-2.328,1.042-2.328,2.328
					c0,1.286,1.042,2.328,2.328,2.328C165.678,65.553,166.72,64.51,166.72,63.225z"/>
				<path style="fill:#814EFF;" d="M176.552,63.225c0-1.286-1.042-2.328-2.328-2.328c-1.286,0-2.328,1.042-2.328,2.328
					c0,1.286,1.042,2.328,2.328,2.328C175.51,65.553,176.552,64.51,176.552,63.225z"/>
			</g>
			<rect x="133.82" y="82.05" style="fill:#814EFF;" width="88.717" height="47.402"/>
			<rect x="169.066" y="144.659" style="fill:#9E97FF;" width="76.247" height="37.446"/>
			<g>
				
					<line style="fill:none;stroke:#060305;stroke-linecap:round;stroke-linejoin:round;stroke-miterlimit:10;" x1="242.517" y1="87.108" x2="330.212" y2="87.108"/>
				
					<line style="fill:none;stroke:#060305;stroke-linecap:round;stroke-linejoin:round;stroke-miterlimit:10;" x1="242.517" y1="94.565" x2="330.212" y2="94.565"/>
				
					<line style="fill:none;stroke:#060305;stroke-linecap:round;stroke-linejoin:round;stroke-miterlimit:10;" x1="242.517" y1="102.022" x2="330.212" y2="102.022"/>
				
					<line style="fill:none;stroke:#060305;stroke-linecap:round;stroke-linejoin:round;stroke-miterlimit:10;" x1="242.517" y1="109.479" x2="330.212" y2="109.479"/>
				
					<line style="fill:none;stroke:#060305;stroke-linecap:round;stroke-linejoin:round;stroke-miterlimit:10;" x1="242.517" y1="116.936" x2="330.212" y2="116.936"/>
				
					<line style="fill:none;stroke:#060305;stroke-linecap:round;stroke-linejoin:round;stroke-miterlimit:10;" x1="242.517" y1="124.394" x2="330.212" y2="124.394"/>
			</g>
			<g>
				
					<line style="fill:none;stroke:#060305;stroke-linecap:round;stroke-linejoin:round;stroke-miterlimit:10;" x1="276.447" y1="182.105" x2="352.884" y2="182.105"/>
				<g>
					
						<rect x="279.09" y="146.665" transform="matrix(0.7071 -0.7071 0.7071 0.7071 -23.9698 245.1464)" style="fill:#F6921E;" width="9.685" height="9.685"/>
					
						<line style="fill:none;stroke:#060305;stroke-linecap:round;stroke-linejoin:round;stroke-miterlimit:10;" x1="277.905" y1="165.991" x2="289.961" y2="165.991"/>
					
						<line style="fill:none;stroke:#060305;stroke-linecap:round;stroke-linejoin:round;stroke-miterlimit:10;" x1="277.905" y1="171.268" x2="289.961" y2="171.268"/>
				</g>
				<g>
					<path style="fill:#FF99A8;" d="M313.643,146.95c-5.569-7.724-13.614,6.177,0,10.771
						C327.257,153.127,319.212,139.226,313.643,146.95z"/>
					
						<line style="fill:none;stroke:#060305;stroke-linecap:round;stroke-linejoin:round;stroke-miterlimit:10;" x1="307.541" y1="165.991" x2="319.597" y2="165.991"/>
					
						<line style="fill:none;stroke:#060305;stroke-linecap:round;stroke-linejoin:round;stroke-miterlimit:10;" x1="307.541" y1="171.268" x2="319.597" y2="171.268"/>
				</g>
				<g>
					<polygon style="fill:#9E97FF;" points="343.353,144.659 336.454,156.609 350.253,156.609 					"/>
					
						<line style="fill:none;stroke:#060305;stroke-linecap:round;stroke-linejoin:round;stroke-miterlimit:10;" x1="336.777" y1="165.991" x2="348.833" y2="165.991"/>
					
						<line style="fill:none;stroke:#060305;stroke-linecap:round;stroke-linejoin:round;stroke-miterlimit:10;" x1="336.777" y1="171.268" x2="348.833" y2="171.268"/>
				</g>
			</g>
		</g>
		<g>
			
				<ellipse transform="matrix(0.9732 -0.2298 0.2298 0.9732 -11.8166 87.5761)" style="fill:#9E97FF;" cx="370.168" cy="94.532" rx="19.609" ry="19.609"/>
			<polygon style="fill:#060305;" points="370.332,106.719 355.285,88.93 360.516,84.506 369.591,95.239 383.227,74.122 
				388.982,77.837 			"/>
		</g>
	</g>
	<g>
		<polygon style="fill:#814EFF;" points="260.11,228.232 250.225,222.525 250.225,233.939 		"/>
		<polygon style="fill:#814EFF;" points="347.103,405.909 356.988,411.616 356.988,400.202 		"/>
		<polygon style="fill:#060305;" points="453.872,141.013 448.165,150.898 459.579,150.898 		"/>
		<polygon style="fill:none;stroke:#060305;stroke-linecap:round;stroke-linejoin:round;stroke-miterlimit:10;" points="
			227.087,431.943 221.38,441.828 232.794,441.828 		"/>
		<polygon style="fill:#060305;" points="67.329,123.687 73.036,113.802 61.622,113.802 		"/>
		<circle style="fill:#814EFF;" cx="218.413" cy="248.388" r="1.585"/>
		<path style="fill:#814EFF;" d="M406.432,213.043c0-0.875-0.709-1.585-1.585-1.585c-0.875,0-1.585,0.71-1.585,1.585
			c0,0.875,0.71,1.585,1.585,1.585C405.723,214.628,406.432,213.919,406.432,213.043z"/>
		<path style="fill:#814EFF;" d="M247.006,344.396c0-0.875-0.71-1.585-1.585-1.585c-0.875,0-1.585,0.71-1.585,1.585
			c0,0.875,0.709,1.585,1.585,1.585C246.297,345.981,247.006,345.271,247.006,344.396z"/>
		
			<circle style="fill:none;stroke:#060305;stroke-linecap:round;stroke-linejoin:round;stroke-miterlimit:10;" cx="277.529" cy="306.718" r="1.585"/>
		<path style="fill:none;stroke:#060305;stroke-linecap:round;stroke-linejoin:round;stroke-miterlimit:10;" d="M406.432,152.116
			c0-0.875-0.709-1.585-1.585-1.585c-0.875,0-1.585,0.71-1.585,1.585s0.71,1.585,1.585,1.585
			C405.723,153.701,406.432,152.991,406.432,152.116z"/>
		<path style="fill:#814EFF;" d="M397.256,62.828c0-0.875-0.709-1.585-1.585-1.585c-0.875,0-1.585,0.709-1.585,1.585
			c0,0.875,0.71,1.585,1.585,1.585C396.546,64.412,397.256,63.703,397.256,62.828z"/>
		<path style="fill:#814EFF;" d="M93.832,172.852c0-0.875-0.71-1.585-1.585-1.585s-1.585,0.709-1.585,1.585s0.71,1.585,1.585,1.585
			S93.832,173.727,93.832,172.852z"/>
		<path style="fill:none;stroke:#060305;stroke-linecap:round;stroke-linejoin:round;stroke-miterlimit:10;" d="M461.097,117.097
			c0-0.875-0.71-1.585-1.585-1.585c-0.875,0-1.585,0.71-1.585,1.585c0,0.875,0.71,1.585,1.585,1.585
			C460.388,118.681,461.097,117.972,461.097,117.097z"/>
		<path style="fill:none;stroke:#060305;stroke-linecap:round;stroke-linejoin:round;stroke-miterlimit:10;" d="M449.75,221.835
			c0-0.875-0.71-1.585-1.585-1.585c-0.875,0-1.585,0.709-1.585,1.585c0,0.875,0.71,1.585,1.585,1.585
			C449.04,223.42,449.75,222.71,449.75,221.835z"/>
		<path style="fill:#814EFF;" d="M474.529,162.757c0-0.875-0.71-1.585-1.585-1.585c-0.875,0-1.585,0.709-1.585,1.585
			c0,0.875,0.71,1.585,1.585,1.585C473.82,164.342,474.529,163.633,474.529,162.757z"/>
		<path style="fill:#814EFF;" d="M396.753,114.14c0-0.875-0.71-1.585-1.585-1.585c-0.875,0-1.585,0.709-1.585,1.585
			c0,0.875,0.71,1.585,1.585,1.585C396.044,115.725,396.753,115.016,396.753,114.14z"/>
		<path style="fill:none;stroke:#060305;stroke-linecap:round;stroke-linejoin:round;stroke-miterlimit:10;" d="M114.66,154.707
			c0-0.875-0.71-1.585-1.585-1.585c-0.875,0-1.585,0.71-1.585,1.585s0.71,1.585,1.585,1.585
			C113.951,156.292,114.66,155.583,114.66,154.707z"/>
		<path style="fill:#060305;" d="M163.649,228.97c0-0.875-0.71-1.585-1.585-1.585c-0.875,0-1.585,0.71-1.585,1.585
			s0.709,1.585,1.585,1.585C162.939,230.555,163.649,229.845,163.649,228.97z"/>
		<path style="fill:#814EFF;" d="M30.875,225.378c0-0.875-0.709-1.585-1.585-1.585c-0.875,0-1.585,0.709-1.585,1.585
			s0.709,1.585,1.585,1.585C30.166,226.963,30.875,226.253,30.875,225.378z"/>
		<path style="fill:#814EFF;" d="M103.242,109.287c0-0.875-0.709-1.585-1.585-1.585c-0.875,0-1.585,0.709-1.585,1.585
			c0,0.875,0.709,1.585,1.585,1.585C102.532,110.871,103.242,110.162,103.242,109.287z"/>
		<path style="fill:#060305;" d="M184.201,393.362c0-0.875-0.709-1.585-1.585-1.585s-1.585,0.71-1.585,1.585
			c0,0.875,0.71,1.585,1.585,1.585S184.201,394.237,184.201,393.362z"/>
		<path style="fill:#814EFF;" d="M260.094,360.274c0-0.875-0.71-1.585-1.585-1.585c-0.875,0-1.585,0.71-1.585,1.585
			c0,0.875,0.709,1.585,1.585,1.585C259.384,361.858,260.094,361.149,260.094,360.274z"/>
		<path style="fill:#060305;" d="M384.469,411.616c0-0.875-0.71-1.585-1.585-1.585c-0.875,0-1.585,0.71-1.585,1.585
			c0,0.875,0.71,1.585,1.585,1.585C383.759,413.201,384.469,412.491,384.469,411.616z"/>
		<path style="fill:#814EFF;" d="M196.734,451.666c0-0.875-0.71-1.585-1.585-1.585s-1.585,0.709-1.585,1.585
			c0,0.875,0.71,1.585,1.585,1.585S196.734,452.542,196.734,451.666z"/>
	</g>
	<g>
		<path style="fill:none;stroke:#060305;stroke-linecap:round;stroke-linejoin:round;stroke-miterlimit:10;" d="M454.723,192.283
			L454.723,192.283c-0.984,3.057-5.309,3.057-6.293,0l0,0c-0.984-3.057-5.309-3.057-6.293,0l0,0c-0.984,3.057-5.309,3.057-6.293,0
			l0,0c-0.984-3.057-5.309-3.057-6.293,0l0,0c-0.984,3.057-5.309,3.057-6.293,0l0,0c-0.984-3.057-5.309-3.057-6.293,0l0,0
			c-0.984,3.057-5.309,3.057-6.293,0l0,0c-0.984-3.057-5.309-3.057-6.293,0l0,0c-0.984,3.057-5.309,3.057-6.293,0l0,0
			c-0.984-3.057-5.309-3.057-6.293,0"/>
		<path style="fill:none;stroke:#060305;stroke-linecap:round;stroke-linejoin:round;stroke-miterlimit:10;" d="M152.715,387.268
			L152.715,387.268c-0.984,3.057-5.309,3.057-6.293,0l0,0c-0.984-3.057-5.309-3.057-6.293,0l0,0c-0.984,3.057-5.309,3.057-6.293,0
			l0,0c-0.984-3.057-5.309-3.057-6.293,0l0,0c-0.984,3.057-5.309,3.057-6.293,0l0,0c-0.984-3.057-5.309-3.057-6.293,0l0,0
			c-0.984,3.057-5.309,3.057-6.293,0l0,0c-0.984-3.057-5.309-3.057-6.293,0l0,0c-0.984,3.057-5.309,3.057-6.293,0l0,0
			c-0.984-3.057-5.309-3.057-6.293,0"/>
		<path style="fill:none;stroke:#060305;stroke-linecap:round;stroke-linejoin:round;stroke-miterlimit:10;" d="M416.991,424.118
			L416.991,424.118c-0.984,3.057-5.309,3.057-6.293,0l0,0c-0.984-3.057-5.309-3.057-6.293,0l0,0c-0.984,3.057-5.309,3.057-6.293,0
			l0,0c-0.984-3.057-5.309-3.057-6.293,0l0,0c-0.984,3.057-5.309,3.057-6.293,0l0,0c-0.984-3.057-5.309-3.057-6.293,0l0,0
			c-0.984,3.057-5.309,3.057-6.293,0l0,0c-0.984-3.057-5.309-3.057-6.293,0l0,0c-0.984,3.057-5.309,3.057-6.293,0l0,0
			c-0.984-3.057-5.309-3.057-6.293,0"/>
	</g>
	<g>
		<g>
			<path style="fill:#814EFF;" d="M189.761,305.062c9.284-2.627,21.183-0.057,28.174,6.593c6.991,6.65,9.626,17.806,5.492,26.524
				c-2.29,4.829-6.378,8.652-11.02,11.301c-4.641,2.648-9.831,4.199-15.057,5.316l-72.535,11.097
				c-1.347-13.944-2.694-27.888-4.042-41.831C143.541,317.617,166.994,311.504,189.761,305.062z"/>
			<path style="fill:none;stroke:#060305;stroke-linecap:round;stroke-linejoin:round;stroke-miterlimit:10;" d="M211.663,346.387
				c4.328-2.208,7.545-6.479,8.472-11.248"/>
		</g>
		<g>
			<path style="fill:#FFFFFF;" d="M151.059,247.906c-4.885-8.419-12.349-15.97-21.321-19.745c-7.16-3.013-14.09-5.826-21.25-8.839
				c-1.218,1.959-3.736,3.012-5.987,2.502c-2.25-0.509-4.413-2.55-4.67-4.842c-8.426,0.579-16.796,1.987-24.948,4.197
				c-17.19,4.66-30.214,19.462-37.128,35.876c4.271,1.238,8.258,2.417,12.53,3.655c1.843,15.608,3.773,30.771,5.616,46.379
				c20.664,2.993,41.812,5.717,60.584,14.857l23.469,0.213c3.925-16.14,8.006-32.105,11.931-48.244
				c4.611-2.463,9.712-4.85,14.323-7.314C159.842,260.336,154.891,254.512,151.059,247.906z"/>
			<path style="fill:none;stroke:#060305;stroke-linecap:round;stroke-linejoin:round;stroke-miterlimit:10;" d="M88.155,218.495
				c1.599,4.134,3.367,8.404,6.689,11.338c3.411,3.013,8.312,4.25,12.744,3.217c4.433-1.033,8.282-4.308,10.01-8.519"/>
			<path style="fill:none;stroke:#060305;stroke-linecap:round;stroke-linejoin:round;stroke-miterlimit:10;" d="M138.33,233.355
				c-0.97,14.756-0.309,29.618,1.969,44.229"/>
			<path style="fill:none;stroke:#060305;stroke-linecap:round;stroke-linejoin:round;stroke-miterlimit:10;" d="M71.734,262.203
				c0.903-7.379,1.806-14.757,2.709-22.136c0.288-2.352,0.576-4.728,0.334-7.085c-0.242-2.357-1.062-4.729-2.718-6.424
				c-1.656-1.695-4.241-2.585-6.488-1.834"/>
			<path style="fill:none;stroke:#060305;stroke-linecap:round;stroke-linejoin:round;stroke-miterlimit:10;" d="M38.44,252.592
				c11.178,1.67,22.356,3.34,33.533,5.01"/>
		</g>
		<g>
			<path style="fill:#9E97FF;" d="M141.687,265.989l-17.86,53.38H89.279c-1.751,0-2.865,1.979-1.875,3.43
				c1.115,1.634,2.958,2.607,4.924,2.607h111.816c2.48,0,4.682-1.591,5.472-3.953l18.557-55.462c0.65-1.943-0.788-3.955-2.828-3.955
				h-78.186C144.68,262.036,142.477,263.627,141.687,265.989z"/>
			<path style="fill:#814EFF;" d="M184.922,294.65c0-2.121-1.71-3.84-3.82-3.84s-3.82,1.719-3.82,3.84c0,2.121,1.71,3.84,3.82,3.84
				S184.922,296.77,184.922,294.65z"/>
			
				<line style="fill:none;stroke:#060305;stroke-linecap:round;stroke-linejoin:round;stroke-miterlimit:10;" x1="146.085" y1="262.141" x2="126.369" y2="324.8"/>
			
				<line style="fill:none;stroke:#FFFFFF;stroke-linecap:round;stroke-linejoin:round;stroke-miterlimit:10;" x1="225.395" y1="263.551" x2="177.281" y2="263.551"/>
		</g>
		<g>
			<path style="fill:#FF9A7D;" d="M105.719,295.035C92.91,288.591,79.433,282.89,66.028,277.8c1.49-5.22,2.979-10.441,4.469-15.662
				l-31.279-4.717c-2.886,5.639-5.791,11.323-7.518,17.418c-1.727,6.095-2.218,12.702-0.257,18.725
				c2.924,8.983,11.3,15.262,20.641,16.67c19.754,2.979,39.412,7.18,58.694,12.403c0.927,0.251,1.888,0.505,2.837,0.354
				c0.949-0.151,1.888-0.823,2.029-1.773c-1.074-1.091-2.147-2.182-3.221-3.272c-0.493-0.501-1.009-1.017-1.67-1.257
				c1.469,0.509,3.14,1.233,4.609,1.742c1.315,1.798,2.84,3.439,4.486,4.939c0.708,0.645,2.17,0.786,2.928,0.2
				c-1.063-2.91-2.019-5.649-3.082-8.559c2.31,1.461,4.727,3.35,7.232,4.445c0.956,0.418,2.274,0.116,2.89-0.725
				C123.178,309.689,115.739,300.077,105.719,295.035z"/>
			<path style="fill:none;stroke:#060305;stroke-linecap:round;stroke-linejoin:round;stroke-miterlimit:10;" d="M66.277,277.556
				c-1.864-0.012-3.729-0.024-5.593-0.036"/>
			<path style="fill:none;stroke:#060305;stroke-linecap:round;stroke-linejoin:round;stroke-miterlimit:10;" d="M112.669,308.634
				c2.613,2.524,5.226,5.048,7.839,7.572"/>
			<path style="fill:none;stroke:#060305;stroke-linecap:round;stroke-linejoin:round;stroke-miterlimit:10;" d="M107.782,314.644
				c1.719,1.214,3.438,2.428,5.157,3.643"/>
			<path style="fill:none;stroke:#060305;stroke-linecap:round;stroke-linejoin:round;stroke-miterlimit:10;" d="M104.341,319.053
				c2.361,1.368,4.723,2.735,7.084,4.103"/>
		</g>
		<g>
			<path style="fill:#060305;" d="M152.609,336.943c-6.858-1.748-13.464-3.637-20.049-6.23c-4.228,11.321-5.464,23.63-4.291,35.658
				c11.928,1.149,25.748,0.974,34.654,8.992c1.856,1.671,3.963,3.262,6.406,2.747L152.609,336.943z"/>
			<path style="fill:none;stroke:#FFFFFF;stroke-linecap:round;stroke-linejoin:round;stroke-miterlimit:10;" d="M139.358,360.371
				c0,2.32,0,4.64,0,6.96"/>
			<path style="fill:none;stroke:#FFFFFF;stroke-linecap:round;stroke-linejoin:round;stroke-miterlimit:10;" d="M142.863,360.495
				c0.105,2.487,0.209,4.973,0.313,7.46"/>
			<path style="fill:none;stroke:#FFFFFF;stroke-linecap:round;stroke-linejoin:round;stroke-miterlimit:10;" d="M147.069,360.371
				c-0.042,2.444-0.084,4.889-0.126,7.333"/>
		</g>
		<g>
			<g>
				<path style="fill:none;stroke:#814EFF;stroke-linecap:round;stroke-linejoin:round;stroke-miterlimit:10;" d="M106.337,192.891
					c3.566,0.484,7.303-0.435,10.237-2.518"/>
				<path style="fill:none;stroke:#814EFF;stroke-linecap:round;stroke-linejoin:round;stroke-miterlimit:10;" d="M97.907,193.628
					c0.282,0.464,0.565,0.929,0.847,1.393"/>
				<path style="fill:#814EFF;" d="M120.176,197.709c0.916-0.515,1.502-1.569,1.457-2.62c-0.046-1.05-0.721-2.049-1.679-2.483
					c-0.802-0.363-1.72-0.338-2.6-0.306c-3.173,0.115-6.575,0.537-9.73,0.183c-4.027-0.452-8.233,1.213-10.86,4.299
					c-2.627,3.086-3.598,7.504-2.507,11.407l19.76,4.339c0.259-3.329,1.228-6.831,2.467-9.931c0.983-0.039,1.985-0.122,2.888-0.512
					c0.903-0.39,1.702-1.138,1.918-2.097C121.506,199.027,121.123,197.977,120.176,197.709z"/>
			</g>
			<g>
				<path style="fill:#FF9A7D;" d="M113.988,223.399c-1.341-0.547-2.571-0.994-3.912-1.541c0.192-0.713,0.536-1.596,0.728-2.31
					c2.12-0.092,4.194-1.009,5.69-2.516c1.495-1.506,2.366-3.498,2.393-5.62c0.036-2.803-0.031-5.794-1.439-8.218
					c-0.966-1.664-2.71-2.748-4.548-3.316c-0.457,0.871-1.316,1.52-2.278,1.723c-0.962,0.203-1.927-0.106-2.697-0.718
					c-0.386,0.973-1.318,1.708-2.354,1.857c-1.036,0.149-2.044-0.478-2.689-1.303c0.141,1.72-0.608,3.469-1.946,4.558
					c-0.405-0.527-0.762-1.108-1.167-1.636c-1.711-0.64-3.781-0.172-5.05,1.142c-1.269,1.314-1.665,3.399-0.965,5.087
					c0.699,1.687,2.454,2.881,4.28,2.913c-0.549,1.712-1.239,3.278-1.788,4.991c-1.306,0.181-2.693,0.248-3.999,0.43
					c0.782,3.242,2.117,6.223,4.75,8.271c2.633,2.047,6.106,3.054,9.395,2.502C109.681,229.141,112.619,226.44,113.988,223.399z"/>
				<g>
					<circle style="fill:#060305;" cx="106.828" cy="209.703" r="1"/>
					<circle style="fill:#060305;" cx="116.116" cy="209.377" r="1"/>
					<path style="fill:none;stroke:#060305;stroke-linecap:round;stroke-linejoin:round;stroke-miterlimit:10;" d="M112.132,208.721
						c0.201,1.147,0.403,2.294,0.604,3.441c-0.464-0.133-1.094-0.067-1.557-0.2"/>
					<path style="fill:none;stroke:#060305;stroke-linecap:round;stroke-linejoin:round;stroke-miterlimit:10;" d="M105.743,205.248
						c0.341-0.752,1.115-1.288,1.938-1.343c0.824-0.055,1.662,0.373,2.1,1.073"/>
					<path style="fill:none;stroke:#060305;stroke-linecap:round;stroke-linejoin:round;stroke-miterlimit:10;" d="M115.65,204.24
						c0.621-0.037,1.242-0.074,1.863-0.111"/>
					<path style="fill:none;stroke:#060305;stroke-linecap:round;stroke-linejoin:round;stroke-miterlimit:10;" d="M107.607,212.064
						c-0.018,0.49,0.272,0.978,0.71,1.197c0.438,0.219,1.003,0.158,1.384-0.15"/>
				</g>
				<g>
					<path style="fill:none;stroke:#060305;stroke-linecap:round;stroke-linejoin:round;stroke-miterlimit:10;" d="M96.518,206.794
						c0.785,0.42,1.57,0.839,2.355,1.259"/>
					<path style="fill:none;stroke:#060305;stroke-linecap:round;stroke-linejoin:round;stroke-miterlimit:10;" d="M97.66,213.836
						c0.466,0,0.932,0,1.398,0"/>
					<path style="fill:none;stroke:#060305;stroke-linecap:round;stroke-linejoin:round;stroke-miterlimit:10;" d="M102.836,217.807
						c2.181,1.706,5.025,2.539,7.781,2.28"/>
				</g>
			</g>
		</g>
		<g>
			<path style="fill:#814EFF;" d="M67.465,307.962c-9.157-3.038-21.16-1-28.44,5.332c-7.28,6.332-10.41,17.36-6.668,26.253
				c2.072,4.926,5.986,8.928,10.505,11.78c4.519,2.853,9.634,4.633,14.805,5.981l71.968,14.316c1.967-13.87,3.934-27.74,5.901-41.61
				C113.079,322.564,89.922,315.412,67.465,307.962z"/>
			
				<line style="fill:none;stroke:#060305;stroke-linecap:round;stroke-linejoin:round;stroke-miterlimit:10;" x1="136.227" y1="330.045" x2="122.268" y2="325.406"/>
			<path style="fill:none;stroke:#060305;stroke-linecap:round;stroke-linejoin:round;stroke-miterlimit:10;" d="M130.436,328.062
				c-2.984,14.103-5.968,28.207-8.952,42.31"/>
			<path style="fill:none;stroke:#060305;stroke-linecap:round;stroke-linejoin:round;stroke-miterlimit:10;" d="M35.795,326.435
				c0.685-3.526,2.581-6.806,5.296-9.159"/>
		</g>
	</g>
	<g>
		<g>
			<g>
				<rect x="355.991" y="218.955" style="fill:#F6921E;" width="3.169" height="23.267"/>
				<g>
					<polygon style="fill:#F6921E;" points="363.897,220.805 357.576,209.858 351.254,220.805 					"/>
				</g>
			</g>
			<g>
				<rect x="187.243" y="209.858" style="fill:#F6921E;" width="3.169" height="38.068"/>
				<g>
					<polygon style="fill:#F6921E;" points="182.506,246.076 188.828,257.023 195.149,246.076 					"/>
				</g>
			</g>
		</g>
		<g>
			<g>
				<rect x="287.659" y="361.586" style="fill:#9E97FF;" width="179.132" height="31.777"/>
				<rect x="335.629" y="370.874" style="fill:#FF99A8;" width="21.946" height="4.184"/>
				<rect x="360.437" y="370.874" style="fill:#FFFFFF;" width="14.493" height="4.184"/>
				<rect x="335.629" y="379.89" style="fill:#FFFFFF;" width="13.247" height="4.184"/>
				<rect x="352.045" y="379.89" style="fill:#FFFFFF;" width="22.884" height="4.184"/>
				<circle style="fill:#FFFFFF;" cx="395.168" cy="372.819" r="2.641"/>
				<circle style="fill:#FFFFFF;" cx="395.168" cy="382.129" r="2.641"/>
				<path style="fill:#F6921E;" d="M388.167,372.819c0-1.459-1.182-2.641-2.641-2.641c-1.459,0-2.641,1.182-2.641,2.641
					c0,1.459,1.183,2.641,2.641,2.641C386.984,375.461,388.167,374.278,388.167,372.819z"/>
				<path style="fill:#FFFFFF;" d="M388.167,382.129c0-1.459-1.182-2.641-2.641-2.641c-1.459,0-2.641,1.182-2.641,2.641
					c0,1.459,1.183,2.641,2.641,2.641C386.984,384.77,388.167,383.587,388.167,382.129z"/>
				<g>
					
						<rect x="298.568" y="370.874" style="fill:none;stroke:#FFFFFF;stroke-linecap:round;stroke-linejoin:round;stroke-miterlimit:10;" width="29.52" height="13.201"/>
					<g>
						
							<line style="fill:none;stroke:#FFFFFF;stroke-linecap:round;stroke-linejoin:round;stroke-miterlimit:10;" x1="303.293" y1="375.416" x2="322.682" y2="375.416"/>
						
							<line style="fill:none;stroke:#FFFFFF;stroke-linecap:round;stroke-linejoin:round;stroke-miterlimit:10;" x1="322.682" y1="379.532" x2="303.293" y2="379.532"/>
					</g>
				</g>
			</g>
			<g>
				<rect x="409.724" y="361.586" style="fill:#814EFF;" width="57.067" height="31.777"/>
				<g>
					<rect x="418.607" y="370.874" style="fill:#060305;" width="14.493" height="4.184"/>
					<rect x="443.415" y="370.874" style="fill:#9E97FF;" width="14.493" height="4.184"/>
					<rect x="418.607" y="379.89" style="fill:#9E97FF;" width="14.493" height="4.184"/>
					<rect x="443.415" y="379.89" style="fill:#060305;" width="14.493" height="4.184"/>
				</g>
			</g>
		</g>
		<g>
			<g>
				<rect x="287.659" y="248.388" style="fill:#9E97FF;" width="179.132" height="31.777"/>
				<rect x="335.629" y="257.676" style="fill:#FFFFFF;" width="21.946" height="4.184"/>
				<rect x="360.437" y="257.676" style="fill:#FFFFFF;" width="14.493" height="4.184"/>
				<rect x="335.629" y="266.693" style="fill:#FF99A8;" width="13.247" height="4.184"/>
				<rect x="352.045" y="266.693" style="fill:#FFFFFF;" width="22.884" height="4.184"/>
				<circle style="fill:#FFFFFF;" cx="395.168" cy="259.622" r="2.641"/>
				<circle style="fill:#FFFFFF;" cx="395.168" cy="268.931" r="2.641"/>
				<path style="fill:#FFFFFF;" d="M388.167,259.622c0-1.459-1.182-2.641-2.641-2.641c-1.459,0-2.641,1.182-2.641,2.641
					c0,1.459,1.183,2.641,2.641,2.641C386.984,262.263,388.167,261.081,388.167,259.622z"/>
				<path style="fill:#F6921E;" d="M388.167,268.931c0-1.459-1.182-2.641-2.641-2.641c-1.459,0-2.641,1.182-2.641,2.641
					c0,1.459,1.183,2.641,2.641,2.641C386.984,271.572,388.167,270.39,388.167,268.931z"/>
				<g>
					
						<rect x="298.568" y="257.676" style="fill:none;stroke:#FFFFFF;stroke-linecap:round;stroke-linejoin:round;stroke-miterlimit:10;" width="29.52" height="13.201"/>
					<g>
						
							<line style="fill:none;stroke:#FFFFFF;stroke-linecap:round;stroke-linejoin:round;stroke-miterlimit:10;" x1="303.293" y1="262.219" x2="322.682" y2="262.219"/>
						
							<line style="fill:none;stroke:#FFFFFF;stroke-linecap:round;stroke-linejoin:round;stroke-miterlimit:10;" x1="322.682" y1="266.334" x2="303.293" y2="266.334"/>
					</g>
				</g>
			</g>
			<g>
				<rect x="409.724" y="248.388" style="fill:#814EFF;" width="57.067" height="31.777"/>
				<g>
					<rect x="418.607" y="257.676" style="fill:#9E97FF;" width="14.493" height="4.184"/>
					<rect x="443.415" y="257.676" style="fill:#9E97FF;" width="14.493" height="4.184"/>
					<rect x="418.607" y="266.693" style="fill:#9E97FF;" width="14.493" height="4.184"/>
					<rect x="443.415" y="266.693" style="fill:#060305;" width="14.493" height="4.184"/>
				</g>
			</g>
		</g>
		<g>
			<g>
				<rect x="287.659" y="286.121" style="fill:#9E97FF;" width="179.132" height="31.777"/>
				<rect x="335.629" y="295.408" style="fill:#FFFFFF;" width="21.946" height="4.184"/>
				<rect x="360.437" y="295.408" style="fill:#FFFFFF;" width="14.493" height="4.184"/>
				<rect x="335.629" y="304.425" style="fill:#FFFFFF;" width="13.247" height="4.184"/>
				<rect x="352.045" y="304.425" style="fill:#FF99A8;" width="22.884" height="4.184"/>
				<circle style="fill:#F6921E;" cx="395.168" cy="297.354" r="2.641"/>
				<circle style="fill:#FFFFFF;" cx="395.168" cy="306.663" r="2.641"/>
				<path style="fill:#FFFFFF;" d="M388.167,297.354c0-1.459-1.182-2.641-2.641-2.641c-1.459,0-2.641,1.183-2.641,2.641
					c0,1.459,1.183,2.641,2.641,2.641C386.984,299.996,388.167,298.813,388.167,297.354z"/>
				<path style="fill:#FFFFFF;" d="M388.167,306.663c0-1.459-1.182-2.641-2.641-2.641c-1.459,0-2.641,1.182-2.641,2.641
					c0,1.459,1.183,2.641,2.641,2.641C386.984,309.305,388.167,308.122,388.167,306.663z"/>
				<g>
					
						<rect x="298.568" y="295.408" style="fill:none;stroke:#FFFFFF;stroke-linecap:round;stroke-linejoin:round;stroke-miterlimit:10;" width="29.52" height="13.201"/>
					<g>
						
							<line style="fill:none;stroke:#FFFFFF;stroke-linecap:round;stroke-linejoin:round;stroke-miterlimit:10;" x1="303.293" y1="299.951" x2="322.682" y2="299.951"/>
						
							<line style="fill:none;stroke:#FFFFFF;stroke-linecap:round;stroke-linejoin:round;stroke-miterlimit:10;" x1="322.682" y1="304.067" x2="303.293" y2="304.067"/>
					</g>
				</g>
			</g>
			<g>
				<rect x="409.724" y="286.121" style="fill:#814EFF;" width="57.067" height="31.777"/>
				<g>
					<rect x="418.607" y="295.408" style="fill:#060305;" width="14.493" height="4.184"/>
					<rect x="443.415" y="295.408" style="fill:#9E97FF;" width="14.493" height="4.184"/>
					<rect x="418.607" y="304.425" style="fill:#9E97FF;" width="14.493" height="4.184"/>
					<rect x="443.415" y="304.425" style="fill:#9E97FF;" width="14.493" height="4.184"/>
				</g>
			</g>
		</g>
		<g>
			<g>
				<rect x="287.659" y="323.853" style="fill:#9E97FF;" width="179.132" height="31.777"/>
				<rect x="335.629" y="333.141" style="fill:#FFFFFF;" width="21.946" height="4.184"/>
				<rect x="360.437" y="333.141" style="fill:#FFFFFF;" width="14.493" height="4.184"/>
				<rect x="335.629" y="342.158" style="fill:#FF99A8;" width="13.247" height="4.184"/>
				<rect x="352.045" y="342.158" style="fill:#FFFFFF;" width="22.884" height="4.184"/>
				<path style="fill:#FFFFFF;" d="M397.81,335.087c0-1.459-1.182-2.641-2.641-2.641c-1.459,0-2.641,1.182-2.641,2.641
					c0,1.459,1.182,2.641,2.641,2.641C396.627,337.728,397.81,336.546,397.81,335.087z"/>
				<path style="fill:#F6921E;" d="M397.81,344.396c0-1.459-1.182-2.641-2.641-2.641c-1.459,0-2.641,1.182-2.641,2.641
					c0,1.459,1.182,2.641,2.641,2.641C396.627,347.037,397.81,345.855,397.81,344.396z"/>
				<path style="fill:#FFFFFF;" d="M388.167,335.087c0-1.459-1.182-2.641-2.641-2.641c-1.459,0-2.641,1.182-2.641,2.641
					c0,1.459,1.183,2.641,2.641,2.641C386.984,337.728,388.167,336.546,388.167,335.087z"/>
				<path style="fill:#FFFFFF;" d="M388.167,344.396c0-1.459-1.182-2.641-2.641-2.641c-1.459,0-2.641,1.182-2.641,2.641
					c0,1.459,1.183,2.641,2.641,2.641C386.984,347.037,388.167,345.855,388.167,344.396z"/>
				<g>
					
						<rect x="298.568" y="333.141" style="fill:none;stroke:#FFFFFF;stroke-linecap:round;stroke-linejoin:round;stroke-miterlimit:10;" width="29.52" height="13.201"/>
					<g>
						
							<line style="fill:none;stroke:#FFFFFF;stroke-linecap:round;stroke-linejoin:round;stroke-miterlimit:10;" x1="303.293" y1="337.684" x2="322.682" y2="337.684"/>
						
							<line style="fill:none;stroke:#FFFFFF;stroke-linecap:round;stroke-linejoin:round;stroke-miterlimit:10;" x1="322.682" y1="341.799" x2="303.293" y2="341.799"/>
					</g>
				</g>
			</g>
			<g>
				<rect x="409.724" y="323.853" style="fill:#814EFF;" width="57.067" height="31.777"/>
				<g>
					<rect x="418.607" y="333.141" style="fill:#060305;" width="14.493" height="4.184"/>
					<rect x="443.415" y="333.141" style="fill:#9E97FF;" width="14.493" height="4.184"/>
					<rect x="418.607" y="342.158" style="fill:#9E97FF;" width="14.493" height="4.184"/>
					<rect x="443.415" y="342.158" style="fill:#9E97FF;" width="14.493" height="4.184"/>
				</g>
			</g>
		</g>
	</g>
</g>
</svg>
